G04 #@! TF.FileFunction,Legend,Top*
%FSLAX46Y46*%
G04 Gerber Fmt 4.6, Leading zero omitted, Abs format (unit mm)*
G04 Created by KiCad (PCBNEW 4.0.7) date 06/14/19 15:40:25*
%MOMM*%
%LPD*%
G01*
G04 APERTURE LIST*
%ADD10C,0.100000*%
%ADD11C,0.120000*%
%ADD12C,0.150000*%
%ADD13C,0.050800*%
%ADD14C,0.063500*%
G04 APERTURE END LIST*
D10*
D11*
X20070000Y-20532500D02*
X20570000Y-20532500D01*
X20570000Y-19472500D02*
X20070000Y-19472500D01*
D12*
X17267500Y-22967500D02*
X17007500Y-22967500D01*
X17982500Y-22967500D02*
X17722500Y-22967500D01*
X17267500Y-22967500D02*
G75*
G03X17462500Y-23162500I195000J0D01*
G01*
X17527500Y-23162500D02*
G75*
G03X17722500Y-22967500I0J195000D01*
G01*
X17982500Y-22967500D02*
X17982500Y-24592500D01*
X17982500Y-24592500D02*
X17007500Y-24592500D01*
X17007500Y-24592500D02*
X17007500Y-22967500D01*
X17267500Y-19792500D02*
X17007500Y-19792500D01*
X17982500Y-19792500D02*
X17722500Y-19792500D01*
X17267500Y-19792500D02*
G75*
G03X17462500Y-19987500I195000J0D01*
G01*
X17527500Y-19987500D02*
G75*
G03X17722500Y-19792500I0J195000D01*
G01*
X17982500Y-19792500D02*
X17982500Y-21417500D01*
X17982500Y-21417500D02*
X17007500Y-21417500D01*
X17007500Y-21417500D02*
X17007500Y-19792500D01*
D11*
X20070000Y-24977500D02*
X20570000Y-24977500D01*
X20570000Y-23917500D02*
X20070000Y-23917500D01*
X20070000Y-23707500D02*
X20570000Y-23707500D01*
X20570000Y-22647500D02*
X20070000Y-22647500D01*
X20070000Y-21802500D02*
X20570000Y-21802500D01*
X20570000Y-20742500D02*
X20070000Y-20742500D01*
X20070000Y-18627500D02*
X20570000Y-18627500D01*
X20570000Y-17567500D02*
X20070000Y-17567500D01*
D12*
X17267500Y-16617500D02*
X17007500Y-16617500D01*
X17982500Y-16617500D02*
X17722500Y-16617500D01*
X17267500Y-16617500D02*
G75*
G03X17462500Y-16812500I195000J0D01*
G01*
X17527500Y-16812500D02*
G75*
G03X17722500Y-16617500I0J195000D01*
G01*
X17982500Y-16617500D02*
X17982500Y-18242500D01*
X17982500Y-18242500D02*
X17007500Y-18242500D01*
X17007500Y-18242500D02*
X17007500Y-16617500D01*
D11*
X20070000Y-17357500D02*
X20570000Y-17357500D01*
X20570000Y-16297500D02*
X20070000Y-16297500D01*
D12*
X19287067Y-26352500D02*
G75*
G03X19287067Y-26352500I-872067J0D01*
G01*
X19287067Y-14922500D02*
G75*
G03X19287067Y-14922500I-872067J0D01*
G01*
D13*
X21514905Y-20042333D02*
X21393952Y-20127000D01*
X21514905Y-20187476D02*
X21260905Y-20187476D01*
X21260905Y-20090714D01*
X21273000Y-20066523D01*
X21285095Y-20054428D01*
X21309286Y-20042333D01*
X21345571Y-20042333D01*
X21369762Y-20054428D01*
X21381857Y-20066523D01*
X21393952Y-20090714D01*
X21393952Y-20187476D01*
X21260905Y-19957666D02*
X21260905Y-19800428D01*
X21357667Y-19885095D01*
X21357667Y-19848809D01*
X21369762Y-19824619D01*
X21381857Y-19812523D01*
X21406048Y-19800428D01*
X21466524Y-19800428D01*
X21490714Y-19812523D01*
X21502810Y-19824619D01*
X21514905Y-19848809D01*
X21514905Y-19921381D01*
X21502810Y-19945571D01*
X21490714Y-19957666D01*
X17306476Y-22560905D02*
X17306476Y-22766524D01*
X17318571Y-22790714D01*
X17330667Y-22802810D01*
X17354857Y-22814905D01*
X17403238Y-22814905D01*
X17427429Y-22802810D01*
X17439524Y-22790714D01*
X17451619Y-22766524D01*
X17451619Y-22560905D01*
X17548381Y-22560905D02*
X17705619Y-22560905D01*
X17620952Y-22657667D01*
X17657238Y-22657667D01*
X17681428Y-22669762D01*
X17693524Y-22681857D01*
X17705619Y-22706048D01*
X17705619Y-22766524D01*
X17693524Y-22790714D01*
X17681428Y-22802810D01*
X17657238Y-22814905D01*
X17584666Y-22814905D01*
X17560476Y-22802810D01*
X17548381Y-22790714D01*
X17306476Y-19360905D02*
X17306476Y-19566524D01*
X17318571Y-19590714D01*
X17330667Y-19602810D01*
X17354857Y-19614905D01*
X17403238Y-19614905D01*
X17427429Y-19602810D01*
X17439524Y-19590714D01*
X17451619Y-19566524D01*
X17451619Y-19360905D01*
X17560476Y-19385095D02*
X17572571Y-19373000D01*
X17596762Y-19360905D01*
X17657238Y-19360905D01*
X17681428Y-19373000D01*
X17693524Y-19385095D01*
X17705619Y-19409286D01*
X17705619Y-19433476D01*
X17693524Y-19469762D01*
X17548381Y-19614905D01*
X17705619Y-19614905D01*
X21514905Y-24542333D02*
X21393952Y-24627000D01*
X21514905Y-24687476D02*
X21260905Y-24687476D01*
X21260905Y-24590714D01*
X21273000Y-24566523D01*
X21285095Y-24554428D01*
X21309286Y-24542333D01*
X21345571Y-24542333D01*
X21369762Y-24554428D01*
X21381857Y-24566523D01*
X21393952Y-24590714D01*
X21393952Y-24687476D01*
X21260905Y-24324619D02*
X21260905Y-24373000D01*
X21273000Y-24397190D01*
X21285095Y-24409285D01*
X21321381Y-24433476D01*
X21369762Y-24445571D01*
X21466524Y-24445571D01*
X21490714Y-24433476D01*
X21502810Y-24421381D01*
X21514905Y-24397190D01*
X21514905Y-24348809D01*
X21502810Y-24324619D01*
X21490714Y-24312523D01*
X21466524Y-24300428D01*
X21406048Y-24300428D01*
X21381857Y-24312523D01*
X21369762Y-24324619D01*
X21357667Y-24348809D01*
X21357667Y-24397190D01*
X21369762Y-24421381D01*
X21381857Y-24433476D01*
X21406048Y-24445571D01*
X21514905Y-23242333D02*
X21393952Y-23327000D01*
X21514905Y-23387476D02*
X21260905Y-23387476D01*
X21260905Y-23290714D01*
X21273000Y-23266523D01*
X21285095Y-23254428D01*
X21309286Y-23242333D01*
X21345571Y-23242333D01*
X21369762Y-23254428D01*
X21381857Y-23266523D01*
X21393952Y-23290714D01*
X21393952Y-23387476D01*
X21260905Y-23012523D02*
X21260905Y-23133476D01*
X21381857Y-23145571D01*
X21369762Y-23133476D01*
X21357667Y-23109285D01*
X21357667Y-23048809D01*
X21369762Y-23024619D01*
X21381857Y-23012523D01*
X21406048Y-23000428D01*
X21466524Y-23000428D01*
X21490714Y-23012523D01*
X21502810Y-23024619D01*
X21514905Y-23048809D01*
X21514905Y-23109285D01*
X21502810Y-23133476D01*
X21490714Y-23145571D01*
X21514905Y-21342333D02*
X21393952Y-21427000D01*
X21514905Y-21487476D02*
X21260905Y-21487476D01*
X21260905Y-21390714D01*
X21273000Y-21366523D01*
X21285095Y-21354428D01*
X21309286Y-21342333D01*
X21345571Y-21342333D01*
X21369762Y-21354428D01*
X21381857Y-21366523D01*
X21393952Y-21390714D01*
X21393952Y-21487476D01*
X21345571Y-21124619D02*
X21514905Y-21124619D01*
X21248810Y-21185095D02*
X21430238Y-21245571D01*
X21430238Y-21088333D01*
X21514905Y-18142333D02*
X21393952Y-18227000D01*
X21514905Y-18287476D02*
X21260905Y-18287476D01*
X21260905Y-18190714D01*
X21273000Y-18166523D01*
X21285095Y-18154428D01*
X21309286Y-18142333D01*
X21345571Y-18142333D01*
X21369762Y-18154428D01*
X21381857Y-18166523D01*
X21393952Y-18190714D01*
X21393952Y-18287476D01*
X21285095Y-18045571D02*
X21273000Y-18033476D01*
X21260905Y-18009285D01*
X21260905Y-17948809D01*
X21273000Y-17924619D01*
X21285095Y-17912523D01*
X21309286Y-17900428D01*
X21333476Y-17900428D01*
X21369762Y-17912523D01*
X21514905Y-18057666D01*
X21514905Y-17900428D01*
X17306476Y-16160905D02*
X17306476Y-16366524D01*
X17318571Y-16390714D01*
X17330667Y-16402810D01*
X17354857Y-16414905D01*
X17403238Y-16414905D01*
X17427429Y-16402810D01*
X17439524Y-16390714D01*
X17451619Y-16366524D01*
X17451619Y-16160905D01*
X17705619Y-16414905D02*
X17560476Y-16414905D01*
X17633047Y-16414905D02*
X17633047Y-16160905D01*
X17608857Y-16197190D01*
X17584666Y-16221381D01*
X17560476Y-16233476D01*
X21514905Y-16842333D02*
X21393952Y-16927000D01*
X21514905Y-16987476D02*
X21260905Y-16987476D01*
X21260905Y-16890714D01*
X21273000Y-16866523D01*
X21285095Y-16854428D01*
X21309286Y-16842333D01*
X21345571Y-16842333D01*
X21369762Y-16854428D01*
X21381857Y-16866523D01*
X21393952Y-16890714D01*
X21393952Y-16987476D01*
X21514905Y-16600428D02*
X21514905Y-16745571D01*
X21514905Y-16673000D02*
X21260905Y-16673000D01*
X21297190Y-16697190D01*
X21321381Y-16721381D01*
X21333476Y-16745571D01*
D14*
X17060334Y-26213405D02*
X17060334Y-26394833D01*
X17048238Y-26431119D01*
X17024048Y-26455310D01*
X16987762Y-26467405D01*
X16963572Y-26467405D01*
X17314334Y-26467405D02*
X17169191Y-26467405D01*
X17241762Y-26467405D02*
X17241762Y-26213405D01*
X17217572Y-26249690D01*
X17193381Y-26273881D01*
X17169191Y-26285976D01*
X17060334Y-14783405D02*
X17060334Y-14964833D01*
X17048238Y-15001119D01*
X17024048Y-15025310D01*
X16987762Y-15037405D01*
X16963572Y-15037405D01*
X17169191Y-14807595D02*
X17181286Y-14795500D01*
X17205477Y-14783405D01*
X17265953Y-14783405D01*
X17290143Y-14795500D01*
X17302239Y-14807595D01*
X17314334Y-14831786D01*
X17314334Y-14855976D01*
X17302239Y-14892262D01*
X17157096Y-15037405D01*
X17314334Y-15037405D01*
M02*
