G04 #@! TF.FileFunction,Legend,Bot*
%FSLAX46Y46*%
G04 Gerber Fmt 4.6, Leading zero omitted, Abs format (unit mm)*
G04 Created by KiCad (PCBNEW 4.0.7) date 06/14/19 15:40:25*
%MOMM*%
%LPD*%
G01*
G04 APERTURE LIST*
%ADD10C,0.100000*%
%ADD11C,0.120000*%
%ADD12C,0.150000*%
%ADD13C,0.050800*%
G04 APERTURE END LIST*
D10*
D11*
X20070000Y-23917500D02*
X20570000Y-23917500D01*
X20570000Y-24977500D02*
X20070000Y-24977500D01*
X20070000Y-22647500D02*
X20570000Y-22647500D01*
X20570000Y-23707500D02*
X20070000Y-23707500D01*
X20070000Y-20742500D02*
X20570000Y-20742500D01*
X20570000Y-21802500D02*
X20070000Y-21802500D01*
X20070000Y-17567500D02*
X20570000Y-17567500D01*
X20570000Y-18627500D02*
X20070000Y-18627500D01*
X20070000Y-19472500D02*
X20570000Y-19472500D01*
X20570000Y-20532500D02*
X20070000Y-20532500D01*
D12*
X17267500Y-24657500D02*
X17007500Y-24657500D01*
X17982500Y-24657500D02*
X17722500Y-24657500D01*
X17267500Y-24657500D02*
G75*
G02X17462500Y-24462500I195000J0D01*
G01*
X17527500Y-24462500D02*
G75*
G02X17722500Y-24657500I0J-195000D01*
G01*
X17982500Y-24657500D02*
X17982500Y-23032500D01*
X17982500Y-23032500D02*
X17007500Y-23032500D01*
X17007500Y-23032500D02*
X17007500Y-24657500D01*
X17267500Y-21482500D02*
X17007500Y-21482500D01*
X17982500Y-21482500D02*
X17722500Y-21482500D01*
X17267500Y-21482500D02*
G75*
G02X17462500Y-21287500I195000J0D01*
G01*
X17527500Y-21287500D02*
G75*
G02X17722500Y-21482500I0J-195000D01*
G01*
X17982500Y-21482500D02*
X17982500Y-19857500D01*
X17982500Y-19857500D02*
X17007500Y-19857500D01*
X17007500Y-19857500D02*
X17007500Y-21482500D01*
D11*
X20070000Y-16297500D02*
X20570000Y-16297500D01*
X20570000Y-17357500D02*
X20070000Y-17357500D01*
D12*
X17267500Y-18307500D02*
X17007500Y-18307500D01*
X17982500Y-18307500D02*
X17722500Y-18307500D01*
X17267500Y-18307500D02*
G75*
G02X17462500Y-18112500I195000J0D01*
G01*
X17527500Y-18112500D02*
G75*
G02X17722500Y-18307500I0J-195000D01*
G01*
X17982500Y-18307500D02*
X17982500Y-16682500D01*
X17982500Y-16682500D02*
X17007500Y-16682500D01*
X17007500Y-16682500D02*
X17007500Y-18307500D01*
D13*
X19414905Y-24457667D02*
X19293952Y-24373000D01*
X19414905Y-24312524D02*
X19160905Y-24312524D01*
X19160905Y-24409286D01*
X19173000Y-24433477D01*
X19185095Y-24445572D01*
X19209286Y-24457667D01*
X19245571Y-24457667D01*
X19269762Y-24445572D01*
X19281857Y-24433477D01*
X19293952Y-24409286D01*
X19293952Y-24312524D01*
X19160905Y-24542334D02*
X19160905Y-24711667D01*
X19414905Y-24602810D01*
X19414905Y-23157667D02*
X19293952Y-23073000D01*
X19414905Y-23012524D02*
X19160905Y-23012524D01*
X19160905Y-23109286D01*
X19173000Y-23133477D01*
X19185095Y-23145572D01*
X19209286Y-23157667D01*
X19245571Y-23157667D01*
X19269762Y-23145572D01*
X19281857Y-23133477D01*
X19293952Y-23109286D01*
X19293952Y-23012524D01*
X19269762Y-23302810D02*
X19257667Y-23278619D01*
X19245571Y-23266524D01*
X19221381Y-23254429D01*
X19209286Y-23254429D01*
X19185095Y-23266524D01*
X19173000Y-23278619D01*
X19160905Y-23302810D01*
X19160905Y-23351191D01*
X19173000Y-23375381D01*
X19185095Y-23387477D01*
X19209286Y-23399572D01*
X19221381Y-23399572D01*
X19245571Y-23387477D01*
X19257667Y-23375381D01*
X19269762Y-23351191D01*
X19269762Y-23302810D01*
X19281857Y-23278619D01*
X19293952Y-23266524D01*
X19318143Y-23254429D01*
X19366524Y-23254429D01*
X19390714Y-23266524D01*
X19402810Y-23278619D01*
X19414905Y-23302810D01*
X19414905Y-23351191D01*
X19402810Y-23375381D01*
X19390714Y-23387477D01*
X19366524Y-23399572D01*
X19318143Y-23399572D01*
X19293952Y-23387477D01*
X19281857Y-23375381D01*
X19269762Y-23351191D01*
X19414905Y-21257667D02*
X19293952Y-21173000D01*
X19414905Y-21112524D02*
X19160905Y-21112524D01*
X19160905Y-21209286D01*
X19173000Y-21233477D01*
X19185095Y-21245572D01*
X19209286Y-21257667D01*
X19245571Y-21257667D01*
X19269762Y-21245572D01*
X19281857Y-21233477D01*
X19293952Y-21209286D01*
X19293952Y-21112524D01*
X19414905Y-21378619D02*
X19414905Y-21427000D01*
X19402810Y-21451191D01*
X19390714Y-21463286D01*
X19354429Y-21487477D01*
X19306048Y-21499572D01*
X19209286Y-21499572D01*
X19185095Y-21487477D01*
X19173000Y-21475381D01*
X19160905Y-21451191D01*
X19160905Y-21402810D01*
X19173000Y-21378619D01*
X19185095Y-21366524D01*
X19209286Y-21354429D01*
X19269762Y-21354429D01*
X19293952Y-21366524D01*
X19306048Y-21378619D01*
X19318143Y-21402810D01*
X19318143Y-21451191D01*
X19306048Y-21475381D01*
X19293952Y-21487477D01*
X19269762Y-21499572D01*
X19414905Y-17936714D02*
X19293952Y-17852047D01*
X19414905Y-17791571D02*
X19160905Y-17791571D01*
X19160905Y-17888333D01*
X19173000Y-17912524D01*
X19185095Y-17924619D01*
X19209286Y-17936714D01*
X19245571Y-17936714D01*
X19269762Y-17924619D01*
X19281857Y-17912524D01*
X19293952Y-17888333D01*
X19293952Y-17791571D01*
X19414905Y-18178619D02*
X19414905Y-18033476D01*
X19414905Y-18106047D02*
X19160905Y-18106047D01*
X19197190Y-18081857D01*
X19221381Y-18057666D01*
X19233476Y-18033476D01*
X19414905Y-18420524D02*
X19414905Y-18275381D01*
X19414905Y-18347952D02*
X19160905Y-18347952D01*
X19197190Y-18323762D01*
X19221381Y-18299571D01*
X19233476Y-18275381D01*
X19414905Y-19836714D02*
X19293952Y-19752047D01*
X19414905Y-19691571D02*
X19160905Y-19691571D01*
X19160905Y-19788333D01*
X19173000Y-19812524D01*
X19185095Y-19824619D01*
X19209286Y-19836714D01*
X19245571Y-19836714D01*
X19269762Y-19824619D01*
X19281857Y-19812524D01*
X19293952Y-19788333D01*
X19293952Y-19691571D01*
X19414905Y-20078619D02*
X19414905Y-19933476D01*
X19414905Y-20006047D02*
X19160905Y-20006047D01*
X19197190Y-19981857D01*
X19221381Y-19957666D01*
X19233476Y-19933476D01*
X19160905Y-20235857D02*
X19160905Y-20260048D01*
X19173000Y-20284238D01*
X19185095Y-20296333D01*
X19209286Y-20308429D01*
X19257667Y-20320524D01*
X19318143Y-20320524D01*
X19366524Y-20308429D01*
X19390714Y-20296333D01*
X19402810Y-20284238D01*
X19414905Y-20260048D01*
X19414905Y-20235857D01*
X19402810Y-20211667D01*
X19390714Y-20199571D01*
X19366524Y-20187476D01*
X19318143Y-20175381D01*
X19257667Y-20175381D01*
X19209286Y-20187476D01*
X19185095Y-20199571D01*
X19173000Y-20211667D01*
X19160905Y-20235857D01*
X17693524Y-24860905D02*
X17693524Y-25066524D01*
X17681429Y-25090714D01*
X17669333Y-25102810D01*
X17645143Y-25114905D01*
X17596762Y-25114905D01*
X17572571Y-25102810D01*
X17560476Y-25090714D01*
X17548381Y-25066524D01*
X17548381Y-24860905D01*
X17318572Y-24945571D02*
X17318572Y-25114905D01*
X17379048Y-24848810D02*
X17439524Y-25030238D01*
X17282286Y-25030238D01*
X17693524Y-21660905D02*
X17693524Y-21866524D01*
X17681429Y-21890714D01*
X17669333Y-21902810D01*
X17645143Y-21914905D01*
X17596762Y-21914905D01*
X17572571Y-21902810D01*
X17560476Y-21890714D01*
X17548381Y-21866524D01*
X17548381Y-21660905D01*
X17306476Y-21660905D02*
X17427429Y-21660905D01*
X17439524Y-21781857D01*
X17427429Y-21769762D01*
X17403238Y-21757667D01*
X17342762Y-21757667D01*
X17318572Y-21769762D01*
X17306476Y-21781857D01*
X17294381Y-21806048D01*
X17294381Y-21866524D01*
X17306476Y-21890714D01*
X17318572Y-21902810D01*
X17342762Y-21914905D01*
X17403238Y-21914905D01*
X17427429Y-21902810D01*
X17439524Y-21890714D01*
X19414905Y-16636714D02*
X19293952Y-16552047D01*
X19414905Y-16491571D02*
X19160905Y-16491571D01*
X19160905Y-16588333D01*
X19173000Y-16612524D01*
X19185095Y-16624619D01*
X19209286Y-16636714D01*
X19245571Y-16636714D01*
X19269762Y-16624619D01*
X19281857Y-16612524D01*
X19293952Y-16588333D01*
X19293952Y-16491571D01*
X19414905Y-16878619D02*
X19414905Y-16733476D01*
X19414905Y-16806047D02*
X19160905Y-16806047D01*
X19197190Y-16781857D01*
X19221381Y-16757666D01*
X19233476Y-16733476D01*
X19185095Y-16975381D02*
X19173000Y-16987476D01*
X19160905Y-17011667D01*
X19160905Y-17072143D01*
X19173000Y-17096333D01*
X19185095Y-17108429D01*
X19209286Y-17120524D01*
X19233476Y-17120524D01*
X19269762Y-17108429D01*
X19414905Y-16963286D01*
X19414905Y-17120524D01*
X17693524Y-18460905D02*
X17693524Y-18666524D01*
X17681429Y-18690714D01*
X17669333Y-18702810D01*
X17645143Y-18714905D01*
X17596762Y-18714905D01*
X17572571Y-18702810D01*
X17560476Y-18690714D01*
X17548381Y-18666524D01*
X17548381Y-18460905D01*
X17318572Y-18460905D02*
X17366953Y-18460905D01*
X17391143Y-18473000D01*
X17403238Y-18485095D01*
X17427429Y-18521381D01*
X17439524Y-18569762D01*
X17439524Y-18666524D01*
X17427429Y-18690714D01*
X17415334Y-18702810D01*
X17391143Y-18714905D01*
X17342762Y-18714905D01*
X17318572Y-18702810D01*
X17306476Y-18690714D01*
X17294381Y-18666524D01*
X17294381Y-18606048D01*
X17306476Y-18581857D01*
X17318572Y-18569762D01*
X17342762Y-18557667D01*
X17391143Y-18557667D01*
X17415334Y-18569762D01*
X17427429Y-18581857D01*
X17439524Y-18606048D01*
M02*
