G04 #@! TF.GenerationSoftware,KiCad,Pcbnew,(5.1.5)-3*
G04 #@! TF.CreationDate,2020-12-05T23:13:34-07:00*
G04 #@! TF.ProjectId,Atari_Varistor,41746172-695f-4566-9172-6973746f722e,rev?*
G04 #@! TF.SameCoordinates,Original*
G04 #@! TF.FileFunction,Copper,L1,Top*
G04 #@! TF.FilePolarity,Positive*
%FSLAX46Y46*%
G04 Gerber Fmt 4.6, Leading zero omitted, Abs format (unit mm)*
G04 Created by KiCad (PCBNEW (5.1.5)-3) date 2020-12-05 23:13:34*
%MOMM*%
%LPD*%
G04 APERTURE LIST*
%ADD10R,0.400000X0.600000*%
%ADD11R,0.600000X0.420000*%
%ADD12C,1.524000*%
%ADD13C,0.787400*%
%ADD14C,0.250000*%
G04 APERTURE END LIST*
D10*
X18484000Y-21526500D03*
X17584000Y-21526500D03*
D11*
X14251500Y-24686500D03*
X14251500Y-25336500D03*
X14251500Y-25986500D03*
X16151500Y-25986500D03*
X16151500Y-25336500D03*
X16151500Y-24686500D03*
X14251500Y-21511500D03*
X14251500Y-22161500D03*
X14251500Y-22811500D03*
X16151500Y-22811500D03*
X16151500Y-22161500D03*
X16151500Y-21511500D03*
D10*
X18484000Y-25971500D03*
X17584000Y-25971500D03*
X18484000Y-24701500D03*
X17584000Y-24701500D03*
X18484000Y-22796500D03*
X17584000Y-22796500D03*
X18484000Y-19621500D03*
X17584000Y-19621500D03*
D11*
X14251500Y-18336500D03*
X14251500Y-18986500D03*
X14251500Y-19636500D03*
X16151500Y-19636500D03*
X16151500Y-18986500D03*
X16151500Y-18336500D03*
D10*
X18484000Y-18351500D03*
X17584000Y-18351500D03*
D12*
X16129000Y-27876500D03*
X16129000Y-16446500D03*
D13*
X14224000Y-27241500D03*
D14*
X16129000Y-27876500D02*
X17716500Y-27876500D01*
X18484000Y-27109000D02*
X18484000Y-25971500D01*
X17716500Y-27876500D02*
X18484000Y-27109000D01*
X18484000Y-24701500D02*
X18484000Y-25971500D01*
X18484000Y-24701500D02*
X18484000Y-22796500D01*
X18484000Y-22796500D02*
X18484000Y-21526500D01*
X18484000Y-18351500D02*
X18484000Y-19621500D01*
X18484000Y-19621500D02*
X18484000Y-21526500D01*
X14251500Y-18336500D02*
X14251500Y-18986500D01*
X14251500Y-18336500D02*
X14251500Y-17054000D01*
X14859000Y-16446500D02*
X16129000Y-16446500D01*
X14251500Y-17054000D02*
X14859000Y-16446500D01*
X17584000Y-18351500D02*
X16166500Y-18351500D01*
X16166500Y-18351500D02*
X16151500Y-18336500D01*
X16151500Y-18336500D02*
X16151500Y-18986500D01*
X16151500Y-18986500D02*
X16151500Y-19636500D01*
X17584000Y-19621500D02*
X17584000Y-19754000D01*
X17584000Y-19754000D02*
X16764000Y-20574000D01*
X16764000Y-20574000D02*
X14251500Y-20574000D01*
X14251500Y-21511500D02*
X14251500Y-22161500D01*
X14251500Y-19636500D02*
X14251500Y-20574000D01*
X14251500Y-20574000D02*
X14251500Y-21511500D01*
X16151500Y-21511500D02*
X16151500Y-22161500D01*
X16151500Y-22161500D02*
X16151500Y-22811500D01*
X16151500Y-21511500D02*
X17569000Y-21511500D01*
X17569000Y-21511500D02*
X17584000Y-21526500D01*
X17584000Y-22796500D02*
X17584000Y-22929000D01*
X17584000Y-22929000D02*
X16764000Y-23749000D01*
X16764000Y-23749000D02*
X14251500Y-23749000D01*
X14251500Y-22811500D02*
X14251500Y-23749000D01*
X14251500Y-23749000D02*
X14251500Y-24686500D01*
X14251500Y-24686500D02*
X14251500Y-25336500D01*
X16151500Y-24686500D02*
X16151500Y-25336500D01*
X16151500Y-25336500D02*
X16151500Y-25986500D01*
X17584000Y-24701500D02*
X16166500Y-24701500D01*
X16166500Y-24701500D02*
X16151500Y-24686500D01*
X17584000Y-25971500D02*
X17584000Y-26104000D01*
X17584000Y-26104000D02*
X17081500Y-26606500D01*
X17081500Y-26606500D02*
X14871500Y-26606500D01*
X14871500Y-26606500D02*
X14251500Y-25986500D01*
X14224000Y-27241500D02*
X14224000Y-26014000D01*
X14224000Y-26014000D02*
X14251500Y-25986500D01*
M02*
